/* XPM */
static const char *icono_rakarrack_32x32_xpm[] = {
/* columns rows colors chars-per-pixel */
"32 32 218 2",
"   c #090000",
".  c #090606",
"X  c #120101",
"o  c #120505",
"O  c #160606",
"+  c #170707",
"@  c #180606",
"#  c #120808",
"$  c #140808",
"%  c #170D0D",
"&  c #180808",
"*  c #1B0808",
"=  c #1A0909",
"-  c #1B0909",
";  c #1D0A0A",
":  c #1F0A0A",
">  c #1A0C0C",
",  c #181212",
"<  c #1F1313",
"1  c #1C1214",
"2  c #181414",
"3  c #2A0303",
"4  c #230B0B",
"5  c #240909",
"6  c #220C0C",
"7  c #220D0D",
"8  c #240C0C",
"9  c #260C0C",
"0  c #260D0D",
"q  c #290D0D",
"w  c #2C0E0E",
"e  c #390303",
"r  c #271111",
"t  c #2A1010",
"y  c #281717",
"u  c #221818",
"i  c #231818",
"p  c #221F1F",
"a  c #2C1E1E",
"s  c #331111",
"d  c #341010",
"f  c #351111",
"g  c #361111",
"h  c #351212",
"j  c #381111",
"k  c #381212",
"l  c #3C1313",
"z  c #3F1515",
"x  c #2A2727",
"c  c #2F2B2B",
"v  c #3F2626",
"b  c #332F2F",
"n  c #450A0A",
"m  c #440F0F",
"M  c #421515",
"N  c #4B1212",
"B  c #4D1414",
"V  c #491818",
"C  c #4D1919",
"Z  c #4F1C1C",
"A  c #551313",
"S  c #541C1C",
"D  c #5A1D1D",
"F  c #5D1E1E",
"G  c #5D1F1F",
"H  c #5E1E1E",
"J  c #5F1F1F",
"K  c #611414",
"L  c #601717",
"P  c #651919",
"I  c #661A1A",
"U  c #661B1B",
"Y  c #671B1B",
"T  c #691F1F",
"R  c #453535",
"E  c #453F3F",
"W  c #493D3D",
"Q  c #632121",
"!  c #682222",
"~  c #6A2222",
"^  c #6A2323",
"/  c #6B2424",
"(  c #702C2C",
")  c #753030",
"_  c #723C3C",
"`  c #753D3D",
"'  c #514949",
"]  c #5A5050",
"[  c #715556",
"{  c #706464",
"}  c #797373",
"|  c #804848",
" . c #804A4B",
".. c #835050",
"X. c #8D5353",
"o. c #8C5A5A",
"O. c #905D5D",
"+. c #886060",
"@. c #8C6767",
"#. c #9D7877",
"$. c #A47D7E",
"%. c #A67E7E",
"&. c #9A917A",
"*. c #BDB067",
"=. c #C9BA79",
"-. c #D7C77B",
";. c #DFCE7E",
":. c #8C8383",
">. c #938686",
",. c #978686",
"<. c #A08181",
"1. c #A18181",
"2. c #AE9B9B",
"3. c #B49292",
"4. c #AEA88B",
"5. c #B4AEB1",
"6. c #B7B5B5",
"7. c #B8B9BA",
"8. c #BEBFBF",
"9. c #C2B994",
"0. c #C4BC9A",
"q. c #DBCD8B",
"w. c #DACC8C",
"e. c #CCC398",
"r. c #E4D284",
"t. c #E4D386",
"y. c #EAD782",
"u. c #ECD983",
"i. c #EDDA83",
"p. c #EBD885",
"a. c #E5D588",
"s. c #E8D78B",
"d. c #DAD4B7",
"f. c #E3DCB1",
"g. c #E4DDB4",
"h. c #E5DFB5",
"j. c #E7E0B4",
"k. c #E7E0B5",
"l. c #E7E2B5",
"z. c #E7E0B6",
"x. c #E7E0B7",
"c. c #E7E1B7",
"v. c #E8E1B6",
"b. c #E9E2B6",
"n. c #E6E1B8",
"m. c #E8E2B8",
"M. c #E9E2B8",
"N. c #E8E2B9",
"B. c #EBE3B8",
"V. c #EAE3B9",
"C. c #EBE4B9",
"Z. c #EAE4BA",
"A. c #EAE5BB",
"S. c #EDE6B9",
"D. c #ECE4BA",
"F. c #EEE7BA",
"G. c #EFE7BA",
"H. c #ECE6BC",
"J. c #EEE7BC",
"K. c #F2E9BC",
"L. c #F2EABD",
"P. c #F0EBBF",
"I. c #F3EABE",
"U. c #F2EBBE",
"Y. c #CBC3C3",
"T. c #C8C6C6",
"R. c #CCC5C5",
"E. c #C5C7C8",
"W. c #C0C8C9",
"Q. c #C3CACA",
"!. c #CFCCCC",
"~. c #D0D0D0",
"^. c #D3D5D5",
"/. c #DBD1D1",
"(. c #DAD7D7",
"). c #D6D7D8",
"_. c #D8D8D8",
"`. c #D8D8DA",
"'. c #DEDBDA",
"]. c #DADBDD",
"[. c #E5DADA",
"{. c #E4DADC",
"}. c #EFEBC7",
"|. c #F8EFC1",
" X c #DCDEE0",
".X c #E6E3E3",
"XX c #E3E4E6",
"oX c #E5E7EB",
"OX c #E7EAEC",
"+X c #EBEBEB",
"@X c #EBECEC",
"#X c #F2EBEB",
"$X c #FDFBEB",
"%X c #EFF0F1",
"&X c #F0F2F2",
"*X c #F1F1F4",
"=X c #F2F3F4",
"-X c #F2F5F6",
";X c #F3F4F7",
":X c #F3F5F7",
">X c #F6F6F6",
",X c #F9F6F4",
"<X c #F8FBF0",
"1X c #F5F7F9",
"2X c #F7F8F9",
"3X c #F6FAFC",
"4X c #FBF9F9",
"5X c #F8F9FA",
"6X c #F8F9FB",
"7X c #FBFBFB",
"8X c #FCFCFC",
"9X c #FEFDFD",
"0X c #FEFDFE",
"qX c #FCFEFE",
"wX c #FDFFFF",
"eX c #FEFEFE",
"rX c #FFFFFF",
"tX c None",
/* pixels */
"tXtXtXtXtXtXtXtXtXtXtXtXtXtXtXtXtXtXtXtXtXtXtXtXtXtXtXtXtXtXtXtX",
"tXtXtXtXtXtXtXtXtXtXtXtXtXtXtXtXtXtXtXtXtXtXtXtXtXtXtXtX0.w.p.u.",
"tXtXtXtXtXtXtXtXtXtXtXtXtXtXtXtXtXtXtXtXtXtXtXtXtXtX9.q.t.y.u.tX",
"tXtXtXtXtXtXtXtXtXtXtXtXtXtXtXtXtXtXtXtXtXtXtXtXtXs.q.a.-.tXtXtX",
"tXtXtXtXtXtXtXtXtXtXtXtXtXtXtXtXtXtXtXtXtXtXtXtXtX*.;.r.=.tXtXtX",
"tXtXtXtXtXtXtXtXtXtXtXtXtXtXtXtXtXtXtXtXtXtXtXtX}.e.tXtXtXtXtXtX",
"tXtXtXtXtXtXtXtXtXtXtXtXtXtXtXtXtXtXtXtXtXtXtXA.G.tXtXtXtXtXtXtX",
"tXtXtXtXtXtXtXtXtXtXtXtXtXtXtXtXtXtXtXtXtXtXV.H.tXtXtXtXtXtXtXtX",
"tXtXtXtXtXtXtXtXtXtXtXtXtXtXtXtXtXtXtXtXtXD.V.|.tXtXtXtXtXtXtXtX",
"tXtXtXtXtXtXtXtXtXtXtXtXtXtXtXtXtXtXtXtXA.v.P.tXtXtXtXtXtXtXtXtX",
"tXtXtXtXtXtXtXtXtXtXtXtXtXtXtXtXtXtXtXV.D.K.tXtXtXtXtXtXtXtXtXtX",
"tXtXtXtXtXtXtXtXtXtXtXtXtXtXtXtXtXtXv.h.P.tXtXtXtXtXtXtXtXtXtXtX",
"tXtXtXtXtXtXtXtXtXtXtX2 p tXtXtXtXv.h.P.tXtXtXtXtXtXtXtXtXtXtXtX",
"tXtXtXtXtXtXtXtXtXtX, . tXtXtXtXx.A.G.tXtXtXtXtXtXtXtXtXtXtXtXtX",
"tXtXtXtXtXtXtXtXtXa @ i tXtXtXV.h.D.tXtXtXtXtXtXtXtXtXtXtXtXtXtX",
"tXtXtXtXtXtXtXtXtXr d 8 tXtXP.x.B.tXtXtXtXtXtXtXtXtXtXtXtXtXtXtX",
"tXtXtXtXtXtXtXtXt j N [ W 4.V.v.tXtXtXtXtXtXtXtXtXtXtXtXtXtXtXtX",
"tXtXtXtXtXtXtXu w n [ ,Xd.f.v.tXtXtXtXtXtXtXtXtXtXtXtXtXtXtXtXtX",
"tXtXtXtXtXtX< 5 e ` {.<Xx.l.tXtXtXtXtXtXtXtXtXtXtXtXtXtXtXtXtXtX",
"tXtXtXtX% 7 3 S $.#X3XoX$X&.tXtXtXtXtXtXtXtXtXtXtXtXtXtXtXtXtXtX",
"tXtX# 7 j n +.[.9X=X1X=X:X5.1 tXb x tXtXtXtXtXtXtXtXtXtXtXtXtXtX",
"tX$ w V A X.rXrX=X+X@XrX4XrX'.6.8.b tXtXtXtXtXtXtXtXtXtXtXtXtXtX",
"$ 5 C Q K %.rX^.].4X@X2XrXrXrXT.E tXtXtXtXtXtXtXtXtXtXtXtXtXtXtX",
"; s G ~ P [ E.].XX_.7XrXrX!.' tXtXtXtXtXtXtXtXtXtXtXtXtXtXtXtXtX",
"- d G ~ P ,.E.6.).`.rX3X.X] tXtXtXtXtXtXtXtXtXtXtXtXtXtXtXtXtXtX",
"w 8 S ~ ~ ( 2.E.~.%X+X%X:.} tXtXtXtXtXtXtXtXtXtXtXtXtXtXtXtXtXtX",
"tX- l G ~ T / 1.../.4X4XR tXtXtXtXtXtXtXtXtXtXtXtXtXtXtXtXtXtXtX",
"tXtX; M G ~ Y ) X.3.rXY.o tXtXtXtXtXtXtXtXtXtXtXtXtXtXtXtXtXtXtX",
"tXtXtX; z G K O.R.$.rX{ tXtXtXtXtXtXtXtXtXtXtXtXtXtXtXtXtXtXtXtX",
"tXtXtXtX@ d B _ (.@.>.> tXtXtXtXtXtXtXtXtXtXtXtXtXtXtXtXtXtXtXtX",
"tXtXtXtXtX; 8 j ,.v   tXtXtXtXtXtXtXtXtXtXtXtXtXtXtXtXtXtXtXtXtX",
"tXtXtXtXtXtXtX@ X O tXtXtXtXtXtXtXtXtXtXtXtXtXtXtXtXtXtXtXtXtXtX"
};
